<?xml version="1.0" encoding="utf-8"?>
<!-- Generator: Adobe Illustrator 25.0.1, SVG Export Plug-In . SVG Version: 6.00 Build 0)  -->
<svg version="1.1" id="Layer_2_1_" xmlns="http://www.w3.org/2000/svg" xmlns:xlink="http://www.w3.org/1999/xlink" x="0px" y="0px"
	 viewBox="0 0 512 512" style="enable-background:new 0 0 512 512;" xml:space="preserve">
<style type="text/css">
	.st0{fill:#60CE80;}
</style>
<path class="st0" d="M457.9,391.5c-33.4-28.3-52.6-69.6-52.6-113.4v-64.8c0-67.5-45-124.6-106.6-143.1V42.7
	C298.7,19.1,279.5,0,256,0s-42.7,19.1-42.7,42.7v27.5c-61.6,18.4-106.6,75.6-106.6,143.2v64.8c0,43.7-19.2,85.1-52.8,113.5
	c-7.1,6.1-11.2,14.9-11.2,24.3c0,17.6,14.4,32,32,32h107.4c5.2,36.1,36.4,64,73.9,64s68.7-27.9,73.9-64h107.4c17.7,0,32-14.4,32-32
	C469.3,406.6,465.2,397.8,457.9,391.5z M322.4,406.7c-1.6-0.1-3.2-0.1-4.8,0H194.4c-1.6-0.1-3.2-0.1-4.8,0H97.8
	c32.1-34.9,50.2-80.6,50.2-128.6v-64.8c0-49.2,33-91.9,80.4-104.4c1.8-0.3,3.6-0.7,5.3-1.3c14.6-3.1,29.9-3.1,44.5,0
	c1.7,0.6,3.5,1,5.3,1.3C331,121.4,364,164.1,364,213.3v64.8c0,48,18.1,93.7,50.3,128.6H322.4z"/>
</svg>
