<?xml version="1.0" encoding="utf-8"?>
<!-- Generator: Adobe Illustrator 25.0.1, SVG Export Plug-In . SVG Version: 6.00 Build 0)  -->
<svg version="1.1" id="Capa_1" xmlns="http://www.w3.org/2000/svg" xmlns:xlink="http://www.w3.org/1999/xlink" x="0px" y="0px"
	 viewBox="0 0 512 512" style="enable-background:new 0 0 512 512;" xml:space="preserve">
<style type="text/css">
	.st0{fill:#60CE80;}
</style>
<g>
	<g>
		<path class="st0" d="M316,30h-28.2l-3.5-10C280.1,8,268.7,0,256,0s-24.1,8-28.3,20l-3.5,10H196c-16.6,0-30,13.4-30,30v15
			c0,8.3,6.7,15,15,15h150c8.3,0,15-6.7,15-15V60C346,43.4,332.6,30,316,30z"/>
	</g>
</g>
<g>
	<g>
		<path class="st0" d="M406,60h-30v15c0,24.8-20.2,45-45,45H181c-24.8,0-45-20.2-45-45V60h-30c-24.8,0-45,20.2-45,45v360
			c0,24.8,20.2,47,45,47h300c24.8,0,45-22.2,45-47V105C451,80.2,430.8,60,406,60z M236.6,385.6l-60,60c-2.9,2.9-6.8,4.4-10.6,4.4
			s-7.7-1.5-10.6-4.4l-30-30c-5.9-5.9-5.9-15.4,0-21.2c5.9-5.9,15.4-5.9,21.2,0l19.4,19.4l49.4-49.4c5.9-5.9,15.4-5.9,21.2,0
			S242.5,379.7,236.6,385.6z M236.6,280.6l-60,60c-2.9,2.9-6.8,4.4-10.6,4.4s-7.7-1.5-10.6-4.4l-30-30c-5.9-5.9-5.9-15.4,0-21.2
			c5.9-5.9,15.4-5.9,21.2,0l19.4,19.4l49.4-49.4c5.9-5.9,15.4-5.9,21.2,0C242.5,265.3,242.5,274.7,236.6,280.6z M236.6,175.6l-60,60
			c-2.9,2.9-6.8,4.4-10.6,4.4s-7.7-1.5-10.6-4.4l-30-30c-5.9-5.9-5.9-15.4,0-21.2c5.9-5.9,15.4-5.9,21.2,0l19.4,19.4l49.4-49.4
			c5.9-5.9,15.4-5.9,21.2,0S242.5,169.7,236.6,175.6z M376,420h-90c-8.3,0-15-6.7-15-15s6.7-15,15-15h90c8.3,0,15,6.7,15,15
			S384.3,420,376,420z M376,315h-90c-8.3,0-15-6.7-15-15s6.7-15,15-15h90c8.3,0,15,6.7,15,15S384.3,315,376,315z M376,210h-90
			c-8.3,0-15-6.7-15-15s6.7-15,15-15h90c8.3,0,15,6.7,15,15S384.3,210,376,210z"/>
	</g>
</g>
</svg>
