<?xml version="1.0" encoding="utf-8"?>
<!-- Generator: Adobe Illustrator 25.0.1, SVG Export Plug-In . SVG Version: 6.00 Build 0)  -->
<svg version="1.1" id="Layer_1" xmlns="http://www.w3.org/2000/svg" xmlns:xlink="http://www.w3.org/1999/xlink" x="0px" y="0px"
	 viewBox="0 0 512 512" style="enable-background:new 0 0 512 512;" xml:space="preserve">
<style type="text/css">
	.st0{fill:#60CE80;}
</style>
<g>
	<path class="st0" d="M151,55.7C151,25,126,0,95.3,0c-73.9,3.1-73.9,108.4,0,111.4C126,111.4,151,86.4,151,55.7z"/>
	<path class="st0" d="M190.7,223.9v-17.1C185.4,80.2,5.2,80.3,0,206.7v17.1c0,8.3,6.7,15,15,15h160.7
		C184,238.9,190.7,232.2,190.7,223.9z"/>
	<path class="st0" d="M472.4,55.7c0-30.7-25-55.7-55.7-55.7c-73.9,3.1-73.9,108.4,0,111.4C447.4,111.4,472.4,86.4,472.4,55.7z"/>
	<path class="st0" d="M416.7,111.4c-52.6,0-95.3,42.8-95.3,95.3v17.1c0,8.3,6.7,15,15,15H497c8.3,0,15-6.7,15-15v-17.1
		C512,154.2,469.2,111.4,416.7,111.4z"/>
	<path class="st0" d="M94.3,272.1c0-1.1,0-2.1,0-3.2h-30c-1.2,64.3,30,122.4,78.2,157.8c4.3-9.2,9.7-17.7,16-25.5
		C119.5,371.6,94.3,324.8,94.3,272.1L94.3,272.1z"/>
	<path class="st0" d="M189.8,124.5c39.9-18.7,92.5-18.7,132.4,0c7.1-8.2,15.3-15.4,24.2-21.5c-53.1-29.9-127.8-29.9-180.9,0
		C174.5,109.1,182.7,116.3,189.8,124.5L189.8,124.5z"/>
	<path class="st0" d="M417.7,268.9c1.2,53.6-24.4,102.3-64.2,132.3c6.3,7.8,11.7,16.3,16,25.5c48.3-35.4,79.4-93.5,78.2-157.8
		L417.7,268.9L417.7,268.9z"/>
	<path class="st0" d="M311.7,328.8c0-30.7-25-55.7-55.7-55.7c-73.9,3.1-73.9,108.4,0,111.4C286.7,384.5,311.7,359.5,311.7,328.8
		L311.7,328.8z"/>
	<path class="st0" d="M256,384.5c-52.6,0-95.3,42.8-95.3,95.3V497c0,8.3,6.7,15,15,15h160.7c8.3,0,15-6.7,15-15v-17.1
		C351.3,427.3,308.6,384.5,256,384.5L256,384.5z"/>
</g>
</svg>
