<?xml version="1.0" encoding="utf-8"?>
<!-- Generator: Adobe Illustrator 25.0.1, SVG Export Plug-In . SVG Version: 6.00 Build 0)  -->
<svg version="1.1" id="Capa_1" xmlns="http://www.w3.org/2000/svg" xmlns:xlink="http://www.w3.org/1999/xlink" x="0px" y="0px"
	 viewBox="0 0 512 512" style="enable-background:new 0 0 512 512;" xml:space="preserve">
<style type="text/css">
	.st0{fill:#60CE80;}
</style>
<g>
	<path class="st0" d="M346,0c-8.3,0-15,6.7-15,15c0,24.8-20.2,45-45,45h-60c-24.8,0-45-20.2-45-45c0-8.3-6.7-15-15-15s-15,6.7-15,15
		c0,32.2,20.6,59.5,49.2,70.1c-8.7,9.7-14.9,21.6-17.6,34.9h147c-2.7-13.2-9-25.2-17.6-34.9c28.4-10.6,49-37.9,49-70.1
		C361,6.7,354.3,0,346,0z"/>
	<path class="st0" d="M76,241c-8.3,0-15,6.7-15,15c0,8.3,6.7,15,15,15h75v57.8c11.3,9.2,21.1,20.3,28.5,33.2H241V150h-45
		c-19.1,0-35.3,12-41.9,28.8C118.4,173.1,91,142.3,91,105V75c0-8.3-6.7-15-15-15s-15,6.7-15,15v30c0,52.8,39.2,96.1,90,103.5V241H76
		z"/>
	<path class="st0" d="M436,60c-8.3,0-15,6.7-15,15v30c0,37.3-27.4,68.1-63.1,73.8C351.3,162,335.1,150,316,150h-45v212h61.5
		c7.4-12.9,17.2-24,28.5-33.1V271h75c8.3,0,15-6.7,15-15s-6.7-15-15-15h-75v-32.5c50.8-7.4,90-50.7,90-103.5V75
		C451,66.7,444.3,60,436,60z"/>
	<path class="st0" d="M3,368c-3.4,4.5-4,10.6-1.4,15.7c2.5,5.1,7.7,8.3,13.4,8.3h61v-60C46.6,332,19.5,346.2,3,368z"/>
	<path class="st0" d="M1.6,460.3c-2.5,5.1-2,11.2,1.4,15.7c16.4,21.8,43.5,36,72.9,36v-60H15C9.4,452,4.2,455.2,1.6,460.3z"/>
	<path class="st0" d="M509,476c3.4-4.5,4-10.6,1.4-15.7s-7.7-8.3-13.4-8.3h-61l-0.1,60c0,0,0,0,0.1,0C465.4,512,492.5,497.8,509,476
		z"/>
	<path class="st0" d="M436,332L436,332v60h61c5.7,0,10.9-3.2,13.4-8.3c2.5-5.1,2-11.2-1.4-15.7C492.5,346.2,465.4,332,436,332z"/>
	<path class="st0" d="M406,506.7V337.3c-25.3,9.1-45.4,29.2-54.4,54.7H160.5c-9.1-25.5-29.1-45.6-54.5-54.7v169.4
		c25.4-9.1,45.4-29.2,54.5-54.7h191.1C360.6,477.4,380.6,497.6,406,506.7z"/>
</g>
</svg>
