<svg xmlns="http://www.w3.org/2000/svg" viewBox="0 0 223.49 394.19"><defs><style>.cls-1{fill:#919191;}</style></defs><g id="Layer_2" data-name="Layer 2"><g id="Layer_1-2" data-name="Layer 1"><path class="cls-1" d="M115.59.3c7.38,2,11.51,7.61,15.58,13.58q43.65,64.1,87.53,128c12,15.27-.23,35-18.08,33.47-59.59-.06-119.18,0-178.77,0-10.83-.07-18-5-21-14.55-2.16-6.89-.15-13,3.85-18.78Q38.45,93.46,72.1,44.84q9.41-13.56,18.81-27.13C96.6,9,103.42-2,115.59.3Z"/><path class="cls-1" d="M112,218.93q44.4,0,88.8,0c17.67-1.42,29.81,18.2,18,33.28q-34.55,50.55-69.14,101.07c-12.82,16.16-30.41,60.54-53.37,31Q50.55,318.39,4.85,252.44c-7.58-10.95-6.09-22.67,3.74-29.79,4.24-3.07,9.15-3.72,14.21-3.72Z"/></g></g></svg>