<?xml version="1.0" encoding="utf-8"?>
<!-- Generator: Adobe Illustrator 25.0.1, SVG Export Plug-In . SVG Version: 6.00 Build 0)  -->
<svg version="1.1" id="Layer_1" xmlns="http://www.w3.org/2000/svg" xmlns:xlink="http://www.w3.org/1999/xlink" x="0px" y="0px"
	 viewBox="0 0 18.2 15.4" style="enable-background:new 0 0 18.2 15.4;" xml:space="preserve">
<style type="text/css">
	.st0{fill:#60CE80;}
</style>
<g id="Layer_2_1_">
	<g id="Layer_1-2">
		<path class="st0" d="M1.5,0h15.2c0.8,0,1.5,0.7,1.5,1.5l0,0c0,0.8-0.7,1.5-1.5,1.5H1.5C0.7,3,0,2.3,0,1.5l0,0C0,0.7,0.7,0,1.5,0z"
			/>
		<path class="st0" d="M1.5,6.1h15.2c0.8,0,1.5,0.7,1.5,1.5l0,0c0,0.8-0.7,1.5-1.5,1.5H1.5C0.7,9.1,0,8.4,0,7.6l0,0
			C0,6.8,0.7,6.1,1.5,6.1z"/>
		<path class="st0" d="M1.5,12.4h15.2c0.8,0,1.5,0.7,1.5,1.5l0,0c0,0.8-0.7,1.5-1.5,1.5H1.5c-0.8,0-1.5-0.7-1.5-1.5l0,0
			C0,13,0.7,12.4,1.5,12.4z"/>
	</g>
</g>
</svg>
