<svg xmlns="http://www.w3.org/2000/svg" viewBox="0 0 138.38 79.33"><defs><style>.cls-1{fill:#154360;}.cls-2{fill:#60ce80;}.cls-3{fill:#91e8a7;}</style></defs><g id="Layer_2" data-name="Layer 2"><g id="Layer_1-2" data-name="Layer 1"><path class="cls-1" d="M61.7,75.33V53.07a4.53,4.53,0,0,0-4-4.57,4.41,4.41,0,0,0-4.84,4.38V75.33H26.44V53.07a4.53,4.53,0,0,0-4-4.57,4.41,4.41,0,0,0-4.84,4.38V75.33H7.18A7.18,7.18,0,0,1,0,68.15v-58A7.17,7.17,0,0,1,7.18,3H90.49V75.33Z"/><path class="cls-2" d="M112.13,35.26h26.25V7.18A7.17,7.17,0,0,0,131.21,0H61.51a4.54,4.54,0,0,0-4.58,4,4.41,4.41,0,0,0,4.39,4.84h3.95a4.55,4.55,0,0,1,4.58,4,4.41,4.41,0,0,1-4.39,4.84H41.62a4.54,4.54,0,0,0-4.58,4,4.41,4.41,0,0,0,4.39,4.84h9.62a4.53,4.53,0,0,1,4.57,4,4.41,4.41,0,0,1-4.38,4.84H48.86a4.53,4.53,0,0,0-4.58,4,4.41,4.41,0,0,0,4.39,4.84H71.49a4.41,4.41,0,0,1,4.39,4.84,4.54,4.54,0,0,1-4.58,4h-.46a4.54,4.54,0,0,0-4.58,4,4.41,4.41,0,0,0,4.39,4.84H80a4.53,4.53,0,0,1,4.57,4,4.41,4.41,0,0,1-4.39,4.84H61.51a4.54,4.54,0,0,0-4.58,4,4.41,4.41,0,0,0,4.39,4.84h69.89a7.18,7.18,0,0,0,7.17-7.18V44.07H111.94a4.41,4.41,0,0,1-4.38-4.84,4.52,4.52,0,0,1,4.57-4"/><path class="cls-3" d="M80.25,37.57a.35.35,0,0,1,0-.69,4.07,4.07,0,0,0,4.07-4.06.35.35,0,0,1,.34-.35.35.35,0,0,1,.35.35,4.76,4.76,0,0,1-4.76,4.75"/><path class="cls-3" d="M64.28,7H61.67a2.35,2.35,0,0,1-2.35-2.35.34.34,0,0,1,.34-.34.35.35,0,0,1,.35.34,1.66,1.66,0,0,0,1.66,1.66h2.61a.35.35,0,0,1,.35.35.35.35,0,0,1-.35.34"/><path class="cls-3" d="M51.15,24.6H41.89a2.35,2.35,0,0,1-2.35-2.35.34.34,0,0,1,.34-.35.35.35,0,0,1,.35.35,1.66,1.66,0,0,0,1.66,1.66h9.26a.34.34,0,0,1,.34.34.35.35,0,0,1-.34.35"/><path class="cls-3" d="M68.2,42.2H49.28a2.35,2.35,0,0,1-2.35-2.35.35.35,0,0,1,.35-.34.34.34,0,0,1,.34.34,1.66,1.66,0,0,0,1.66,1.66H68.2a.35.35,0,0,1,.35.35.35.35,0,0,1-.35.34"/><path class="cls-3" d="M80.18,77.58H61.55a2.35,2.35,0,0,1-2.35-2.35.34.34,0,0,1,.34-.34.35.35,0,0,1,.35.34,1.66,1.66,0,0,0,1.66,1.66H80.18a.35.35,0,1,1,0,.69"/><path class="cls-3" d="M81.87,72.44a.35.35,0,0,1-.35-.35.35.35,0,0,1,.35-.34,4.06,4.06,0,0,0,4.06-4.06.35.35,0,0,1,.35-.35.35.35,0,0,1,.34.35,4.75,4.75,0,0,1-4.75,4.75"/><path class="cls-1" d="M78.26,26.44H69.73a4.41,4.41,0,0,0,0,8.82h8.53a4.41,4.41,0,0,0,0-8.82"/><path class="cls-1" d="M83.74,48.48a4.41,4.41,0,1,0,4.41-4.41,4.4,4.4,0,0,0-4.41,4.41"/></g></g></svg>