<?xml version="1.0" encoding="utf-8"?>
<!-- Generator: Adobe Illustrator 25.0.1, SVG Export Plug-In . SVG Version: 6.00 Build 0)  -->
<svg version="1.0" id="Layer_1" xmlns="http://www.w3.org/2000/svg" xmlns:xlink="http://www.w3.org/1999/xlink" x="0px" y="0px"
	 viewBox="0 0 330 330" style="enable-background:new 0 0 330 330;" xml:space="preserve">
<style type="text/css">
	.st0{fill:#60CE80;}
</style>
<g>
	<path class="st0" d="M319.8,202.8l-35-30.8c0.1-2.3,0.2-4.7,0.2-7c0-2.3-0.1-4.7-0.2-7l35-30.8c5.4-4.7,6.7-12.6,3.1-18.8l-30-52
		c-3.6-6.2-11-9-17.8-6.7L231,64.7c-3.9-2.6-7.9-4.9-12.1-7l-9.1-45.7C208.3,5,202.2,0,195,0h-60c-7.2,0-13.3,5-14.7,12.1l-9.1,45.7
		c-4.2,2.1-8.2,4.4-12.1,7L54.9,49.8c-6.8-2.3-14.2,0.5-17.8,6.7l-30,52c-3.6,6.2-2.3,14,3.1,18.8l35,30.8c-0.1,2.3-0.2,4.7-0.2,7
		s0.1,4.7,0.2,7l-35,30.8c-5.4,4.7-6.7,12.6-3.1,18.8l30,52c3.6,6.2,11,9,17.8,6.7L99,265.3c3.9,2.6,7.9,4.9,12.1,7l9.1,45.7
		c1.4,7,7.6,12.1,14.7,12.1h60c7.1,0,13.3-5,14.7-12.1l9.1-45.7c4.2-2.1,8.2-4.4,12.1-7l44.1,14.9c6.8,2.3,14.2-0.5,17.8-6.7l30-52
		C326.5,215.3,325.2,207.5,319.8,202.8z M274.4,251.5l-42.1-14.2c-3.8-1.3-7.9-0.6-11.1,1.8c-6.3,4.8-13.1,8.7-20.3,11.7
		c-3.7,1.5-6.3,4.8-7.1,8.7l-8.7,43.5h-40.3l-8.7-43.5c-0.8-3.9-3.4-7.2-7.1-8.7c-7.2-3-14-7-20.3-11.7c-3.2-2.4-7.3-3.1-11.1-1.8
		l-42.1,14.2l-20.2-34.9l33.3-29.3c3-2.6,4.5-6.6,4-10.5c-0.5-3.9-0.7-7.8-0.7-11.7c0-3.9,0.2-7.9,0.7-11.7c0.5-4-1-7.9-4-10.5
		l-33.3-29.3l20.2-34.9l42.1,14.2c3.8,1.3,7.9,0.6,11.1-1.8c6.3-4.8,13.1-8.7,20.3-11.7c3.7-1.5,6.3-4.8,7.1-8.7l8.7-43.5h40.3
		l8.7,43.5c0.8,3.9,3.4,7.2,7.1,8.7c7.2,3,14,7,20.3,11.7c3.2,2.4,7.3,3.1,11.1,1.8l42.1-14.2l20.2,34.9l-33.3,29.3
		c-3,2.6-4.5,6.6-4,10.5c0.5,3.9,0.7,7.8,0.7,11.7c0,3.9-0.2,7.9-0.7,11.7c-0.5,4,1,7.9,4,10.5l33.3,29.3L274.4,251.5z"/>
	<path class="st0" d="M165,105c-33.1,0-60,26.9-60,60s26.9,60,60,60c33.1,0,60-26.9,60-60S198.1,105,165,105z M165,198
		c-18.2,0-33-14.8-33-33s14.8-33,33-33c18.2,0,33,14.8,33,33S183.2,198,165,198z"/>
</g>
</svg>
