<?xml version="1.0" encoding="utf-8"?>
<!-- Generator: Adobe Illustrator 25.0.1, SVG Export Plug-In . SVG Version: 6.00 Build 0)  -->
<svg version="1.1" id="Capa_1" xmlns="http://www.w3.org/2000/svg" xmlns:xlink="http://www.w3.org/1999/xlink" x="0px" y="0px"
	 viewBox="0 0 489.4 489.4" style="enable-background:new 0 0 489.4 489.4;" xml:space="preserve">
<style type="text/css">
	.st0{fill:#60CE80;}
</style>
<g>
	<path class="st0" d="M444.5,37.8H44.9C20.2,37.8,0,58,0,82.7v245.6c0,24.8,20.2,44.9,44.9,44.9h9.6v52.2c0,10.6,6.3,20.1,16.1,24.1
		c3.3,1.4,6.6,2,10,2c7,0,13.7-2.8,18.5-7.7l70.6-70.7l274.7,0c24.8,0,44.9-20.2,44.9-44.9V82.7C489.4,58,469.2,37.8,444.5,37.8z
		 M74.1,333.8H44.9c-3.2,0-5.7-2.5-5.7-5.7V82.7c0-3.2,2.5-5.7,5.7-5.7h399.5c3.2,0,5.7,2.5,5.7,5.7v245.6c0,3.2-2.5,5.7-5.7,5.7
		l-280.8,0c-5.9-0.6-11.7,1.4-15.9,5.6l-54.1,54.1v-40.3C93.7,342.7,84.9,333.8,74.1,333.8z"/>
	<path class="st0" d="M93.1,163.6h303.3c10.8,0,19.7-8.8,19.7-19.7c0-10.8-8.8-19.7-19.7-19.7H93.1c-10.8,0-19.7,8.8-19.7,19.7
		C73.4,154.8,82.2,163.6,93.1,163.6z"/>
	<path class="st0" d="M93.1,227.4h303.3c10.8,0,19.7-8.8,19.7-19.7c0-10.8-8.8-19.7-19.7-19.7H93.1c-10.8,0-19.7,8.8-19.7,19.7
		C73.4,218.6,82.2,227.4,93.1,227.4z"/>
	<path class="st0" d="M264.4,271.6c0-10.8-8.8-19.7-19.7-19.7H93.1c-10.8,0-19.7,8.8-19.7,19.7s8.8,19.7,19.7,19.7h151.6
		C255.5,291.2,264.4,282.4,264.4,271.6z"/>
</g>
</svg>
