<?xml version="1.0" encoding="utf-8"?>
<!-- Generator: Adobe Illustrator 25.0.1, SVG Export Plug-In . SVG Version: 6.00 Build 0)  -->
<svg version="1.1" id="Capa_1" xmlns="http://www.w3.org/2000/svg" xmlns:xlink="http://www.w3.org/1999/xlink" x="0px" y="0px"
	 viewBox="0 0 358.1 358.1" style="enable-background:new 0 0 358.1 358.1;" xml:space="preserve">
<style type="text/css">
	.st0{fill:#60CE80;}
</style>
<g>
	<path class="st0" d="M226.2,134.9c-2.3-2.3-5.5-3.6-8.8-3.6c-3.4,0-6.5,1.3-8.8,3.6l-43.8,43.8l-15.1-15.1
		c-2.4-2.4-5.5-3.6-8.8-3.6s-6.5,1.3-8.8,3.7c-2.4,2.4-3.7,5.5-3.7,8.8s1.3,6.5,3.7,8.8l23.9,24c2.3,2.3,5.5,3.6,8.8,3.6l0,0
		c3.4,0,6.5-1.3,8.8-3.6l52.6-52.6C231.1,147.7,231.1,139.8,226.2,134.9z"/>
	<path class="st0" d="M325,73.8c-0.2-2.3-1.6-4.3-3.6-5.3L181.9,0.7c-1.8-0.9-3.9-0.9-5.7,0L36.7,68.5c-2.1,1-3.4,3-3.6,5.3
		c-0.2,2-4.2,50.8,11.2,110.3c9.1,35.1,23,66.5,41.5,93.5c23.2,33.8,53.5,60.6,90.2,79.7c0.9,0.5,2,0.7,3,0.7s2.1-0.2,3-0.7
		c36.7-19,67-45.8,90.2-79.7c18.5-27,32.5-58.4,41.5-93.5C329.1,124.6,325.1,75.8,325,73.8z M179,251.7c-45.6,0-82.7-37.1-82.7-82.7
		s37.1-82.7,82.7-82.7s82.7,37.1,82.7,82.7S224.6,251.7,179,251.7z"/>
</g>
</svg>
